<?xml version="1.0" standalone="no"?>
<!DOCTYPE svg PUBLIC "-//W3C//DTD SVG 20010904//EN"
 "http://www.w3.org/TR/2001/REC-SVG-20010904/DTD/svg10.dtd">
<svg version="1.0" xmlns="http://www.w3.org/2000/svg"
 width="1080.000000pt" height="1080.000000pt" viewBox="0 0 1080.000000 1080.000000"
 preserveAspectRatio="xMidYMid meet">

<g transform="translate(0.000000,1080.000000) scale(0.100000,-0.100000)"
fill="#000000" stroke="none">
<path d="M5536 9589 c-5 -25 -7 -47 -25 -274 -7 -77 -16 -171 -21 -210 -6 -38
-13 -109 -16 -157 l-7 -88 41 0 c22 0 43 4 46 9 3 5 9 75 12 155 4 81 12 153
18 160 9 12 27 13 91 6 44 -5 110 -9 147 -9 36 -1 89 -6 117 -13 59 -13 77 -4
67 35 -7 29 -26 33 -211 43 -71 3 -146 10 -165 15 l-35 9 3 112 c3 62 8 121
13 130 8 15 22 17 112 12 56 -3 148 -12 203 -20 128 -20 149 -17 149 16 0 22
-7 27 -50 37 -27 7 -131 20 -230 28 -99 9 -197 19 -217 22 -33 4 -38 2 -42
-18z"/>
<path d="M6232 9247 c-12 -40 -22 -80 -22 -89 0 -9 -7 -29 -15 -44 -8 -16 -15
-39 -15 -50 0 -12 -7 -39 -16 -59 -22 -54 -22 -156 1 -192 28 -44 50 -61 105
-83 92 -36 160 -23 234 44 20 19 36 33 36 32 0 0 -7 -25 -15 -55 -15 -60 -13
-68 19 -81 32 -12 53 5 64 52 11 48 41 156 72 263 33 113 58 210 55 213 -1 2
-19 5 -39 9 -25 4 -37 2 -40 -8 -2 -8 -14 -48 -26 -89 -66 -218 -100 -281
-173 -318 -56 -28 -90 -28 -153 2 -42 19 -54 31 -64 60 -13 41 -7 103 22 196
11 36 26 90 35 120 9 30 22 74 28 97 12 39 12 41 -8 47 -56 15 -62 10 -85 -67z"/>
<path d="M7003 9293 c-5 -16 -112 -271 -133 -318 -5 -11 -28 -65 -50 -120 -65
-158 -70 -168 -85 -198 -22 -43 -19 -66 11 -78 21 -7 31 -6 45 7 11 10 19 21
19 27 0 5 25 69 56 141 31 72 60 140 64 151 5 11 27 65 50 120 23 55 46 107
50 116 5 10 21 45 35 79 20 48 23 65 14 76 -17 20 -68 18 -76 -3z"/>
<path d="M4323 9269 c-6 -6 -22 -17 -34 -23 -29 -14 -66 -78 -75 -130 -7 -45
-18 -36 -35 31 -15 57 -30 68 -66 51 -31 -15 -33 -37 -9 -98 7 -19 24 -69 36
-110 34 -113 60 -193 69 -215 5 -11 14 -39 20 -61 6 -23 18 -45 26 -48 20 -7
65 10 65 26 0 15 -37 131 -58 181 -11 26 -16 71 -16 135 -1 114 11 138 86 177
55 29 61 36 52 70 -7 27 -40 35 -61 14z"/>
<path d="M7282 9191 c-17 -10 -354 -680 -348 -690 7 -10 65 -35 70 -30 6 7
346 688 346 693 0 12 -57 34 -68 27z"/>
<path d="M4913 9183 c-53 -11 -70 -92 -30 -138 30 -35 88 -37 123 -4 19 18 24
33 24 70 0 28 -6 51 -14 58 -16 14 -71 21 -103 14z"/>
<path d="M3698 9046 c-49 -15 -119 -65 -154 -111 -26 -35 -29 -47 -33 -127 -2
-75 1 -97 19 -141 27 -63 79 -129 133 -168 36 -26 48 -29 121 -29 68 0 90 4
141 28 61 30 128 93 145 138 6 14 10 50 10 80 0 41 -4 54 -15 54 -22 0 -56
-37 -49 -54 6 -17 -20 -83 -44 -109 -9 -11 -35 -31 -57 -46 -34 -21 -52 -26
-113 -26 l-73 0 -50 52 c-27 28 -49 57 -49 65 1 13 63 58 80 58 5 0 39 15 77
34 37 19 105 51 151 72 94 43 99 54 54 125 -65 101 -178 142 -294 105z m133
-58 c38 -13 76 -48 89 -84 8 -19 4 -26 -26 -43 -19 -12 -37 -21 -40 -21 -8 0
-170 -79 -177 -87 -4 -4 -23 -12 -42 -19 -31 -10 -37 -10 -45 6 -17 32 -12
127 9 161 31 51 111 95 177 98 12 1 36 -4 55 -11z"/>
<path d="M3133 8709 c-90 -21 -182 -138 -183 -233 l-1 -31 -33 38 -34 38 -28
-24 -28 -24 47 -70 c26 -38 58 -80 72 -93 14 -13 25 -27 25 -32 0 -5 23 -39
51 -76 96 -126 249 -334 258 -350 7 -13 11 -13 34 4 15 10 27 27 27 36 0 19
-53 99 -116 173 -65 78 -64 83 18 77 57 -4 78 -1 107 14 178 91 211 240 91
418 -33 49 -86 98 -128 120 -37 19 -128 27 -179 15z m153 -95 c50 -38 86 -84
121 -154 38 -75 40 -97 13 -149 -59 -116 -205 -156 -298 -83 -52 42 -113 134
-123 187 -13 72 3 114 66 172 59 54 88 64 155 55 19 -3 49 -15 66 -28z"/>
<path d="M7614 8671 c-12 -5 -35 -26 -53 -47 -25 -31 -31 -47 -31 -87 0 -57
13 -78 123 -195 44 -48 77 -92 77 -104 0 -32 -37 -84 -69 -98 -33 -13 -60 -7
-111 25 -83 52 -125 135 -101 199 19 48 -28 98 -56 59 -68 -93 -9 -229 138
-319 49 -29 66 -34 119 -34 61 0 64 1 106 44 42 41 44 46 44 102 0 69 -5 78
-107 187 -75 81 -90 109 -79 151 22 87 148 72 226 -27 20 -25 25 -43 25 -88 0
-50 3 -60 28 -79 20 -16 28 -18 31 -8 2 7 9 27 14 45 25 77 -39 187 -145 250
-47 27 -142 40 -179 24z"/>
<path d="M8079 8344 c-10 -12 -7 -20 19 -47 18 -18 32 -37 32 -42 0 -5 -65
-75 -144 -155 -186 -187 -189 -199 -90 -308 61 -68 96 -79 102 -33 3 17 -9 35
-47 70 -28 26 -51 51 -51 57 0 5 67 76 149 158 l149 148 61 -62 c62 -62 84
-71 105 -38 9 15 0 28 -54 83 l-64 65 42 43 c39 40 41 45 26 57 -14 12 -23 10
-70 -15 -49 -26 -55 -28 -71 -13 -10 9 -32 23 -49 32 -29 14 -33 14 -45 0z"/>
<path d="M2555 8218 c-53 -27 -100 -73 -132 -128 -22 -39 -26 -57 -27 -131 0
-99 12 -126 100 -213 72 -71 113 -89 204 -89 97 0 133 17 204 94 75 80 95 146
73 237 -24 100 -130 217 -219 242 -58 17 -159 11 -203 -12z m194 -70 c52 -31
99 -76 132 -127 41 -64 41 -141 0 -198 -16 -23 -46 -54 -67 -69 -32 -25 -46
-29 -99 -28 -58 0 -66 4 -121 45 -32 25 -76 67 -96 94 -33 44 -38 57 -38 106
0 62 24 106 94 167 33 29 43 32 98 32 44 0 70 -6 97 -22z"/>
<path d="M1981 7890 c-11 -16 -21 -33 -20 -37 0 -4 39 -35 86 -68 113 -78 264
-187 432 -311 79 -58 108 -74 120 -67 22 14 35 38 29 54 -5 13 -263 204 -376
279 -21 14 -56 39 -77 56 -22 16 -70 51 -106 77 l-66 46 -22 -29z"/>
<path d="M8388 7902 c-35 -16 -36 -18 -23 -42 12 -23 19 -25 84 -25 68 0 71
-1 111 -40 45 -44 80 -102 80 -135 0 -29 -28 -68 -61 -85 -26 -14 -30 -13 -68
18 -22 17 -76 65 -120 104 -87 78 -110 89 -173 80 -73 -10 -138 -79 -138 -146
1 -70 61 -165 122 -194 18 -9 62 -17 97 -19 l63 -3 -46 -40 c-44 -39 -45 -42
-30 -63 21 -31 48 -27 91 12 21 18 54 44 73 57 267 181 301 241 216 386 -41
69 -66 94 -129 128 -55 29 -96 31 -149 7z m-52 -231 c21 -16 53 -43 69 -60 17
-18 47 -42 68 -54 50 -28 48 -37 -18 -77 -57 -34 -167 -35 -216 -1 -49 33 -71
67 -77 117 -4 38 -1 47 26 74 41 41 94 41 148 1z"/>
<path d="M2005 7469 c-57 -30 -79 -53 -114 -120 -27 -51 -31 -70 -31 -135 0
-89 18 -131 82 -190 101 -93 250 -129 343 -83 128 64 208 247 157 360 -22 49
-55 84 -70 75 -22 -14 -23 -58 -1 -94 31 -52 29 -106 -6 -171 -35 -63 -72 -96
-126 -112 -34 -11 -48 -10 -92 6 -29 10 -56 21 -60 25 -8 7 3 40 23 70 24 37
180 324 180 332 0 4 -24 19 -54 33 -72 33 -173 35 -231 4z m170 -65 l24 -16
-28 -51 c-15 -29 -47 -88 -71 -132 -65 -122 -78 -137 -101 -124 -11 5 -33 28
-49 51 -39 54 -41 117 -5 188 34 68 84 100 153 100 31 0 62 -6 77 -16z"/>
<path d="M8682 7359 c-47 -9 -144 -67 -180 -108 -46 -52 -62 -96 -62 -170 0
-79 18 -124 78 -200 56 -69 153 -105 229 -85 28 8 38 36 23 64 -10 18 -17 21
-50 15 -54 -9 -111 9 -146 47 -88 95 -95 180 -22 262 64 73 164 112 274 107
45 -2 103 -63 132 -138 l23 -60 -21 -48 c-11 -27 -28 -53 -36 -59 -18 -14 -22
-72 -6 -88 9 -9 21 -3 48 23 82 78 95 169 39 285 -66 138 -164 185 -323 153z"/>
<path d="M1705 6945 c-3 -8 -7 -22 -10 -30 -2 -9 30 -43 88 -92 276 -232 300
-254 289 -264 -4 -4 -116 -11 -249 -15 -133 -4 -246 -10 -253 -14 -6 -4 -13
-24 -17 -45 l-6 -37 144 7 c79 3 182 11 229 16 47 5 115 9 153 9 64 0 68 1 79
28 6 15 11 41 11 58 1 33 -1 35 -153 164 -43 36 -121 102 -174 148 -98 82
-123 95 -131 67z"/>
<path d="M9305 6836 c-22 -8 -74 -24 -115 -36 -81 -23 -132 -39 -225 -69 -33
-10 -75 -22 -92 -26 -18 -3 -35 -11 -38 -16 -4 -5 -18 -9 -32 -9 -14 0 -39 -6
-56 -14 -18 -8 -49 -17 -71 -21 -37 -6 -38 -8 -32 -38 9 -47 20 -52 68 -36 61
20 141 18 165 -3 11 -10 27 -18 36 -18 9 0 21 -9 27 -20 12 -22 11 -23 -125
-220 -47 -68 -58 -119 -32 -153 10 -15 26 4 125 153 l113 171 32 -17 c55 -29
60 -32 152 -86 49 -29 93 -54 97 -56 13 -6 9 28 -8 63 -16 33 -54 59 -269 176
-33 18 -73 40 -88 49 l-28 17 28 10 c15 6 53 17 83 26 244 70 355 106 376 122
16 11 16 17 6 39 -13 30 -35 32 -97 12z"/>
<path d="M1630 6274 c-86 -31 -125 -63 -161 -133 -18 -36 -22 -59 -22 -130 0
-47 5 -98 11 -112 14 -34 110 -129 131 -129 9 0 23 -6 29 -12 8 -8 52 -14 125
-16 107 -3 114 -1 162 25 87 49 127 131 127 258 0 85 -22 144 -68 185 -48 41
-74 40 -74 -3 0 -25 7 -39 29 -55 39 -29 55 -80 48 -160 -9 -114 -80 -180
-195 -181 -50 -1 -59 12 -43 61 6 18 17 78 25 133 9 55 21 135 27 178 7 42 9
80 5 84 -9 9 -135 15 -156 7z m88 -98 c2 -16 -1 -48 -8 -70 -6 -23 -15 -75
-20 -116 -8 -69 -24 -147 -32 -155 -10 -11 -61 12 -96 43 -54 48 -70 102 -53
185 15 71 44 106 107 128 70 25 98 21 102 -15z"/>
<path d="M9447 5854 c-3 -4 -140 -9 -304 -13 l-298 -6 3 -185 c3 -229 18 -288
92 -360 72 -71 134 -90 283 -90 82 0 130 4 148 14 14 7 37 16 51 19 35 9 111
84 140 138 22 42 23 56 26 267 l3 222 -69 0 c-38 0 -71 -3 -75 -6z m73 -244
c0 -170 -5 -195 -54 -248 -77 -86 -335 -107 -446 -37 -79 50 -110 137 -110
305 l0 117 123 10 c67 5 204 10 305 11 l182 2 0 -160z"/>
<path d="M1500 5600 c-125 -15 -213 -85 -257 -205 -15 -43 -18 -76 -15 -230 1
-99 5 -187 8 -197 7 -23 20 -26 104 -17 41 4 158 8 260 8 102 1 229 4 283 8
l97 6 0 116 c-1 151 -22 305 -49 356 -28 55 -86 110 -143 135 -54 23 -186 33
-288 20z m208 -87 c77 -19 108 -38 151 -92 30 -38 32 -46 45 -193 7 -84 10
-157 6 -162 -9 -9 -357 -30 -510 -31 l-95 0 -8 117 c-10 134 0 205 39 264 33
51 73 75 159 95 91 22 132 23 213 2z"/>
<path d="M8985 5061 c-27 -4 -59 -12 -70 -18 -44 -25 -94 -90 -114 -148 -41
-116 -20 -226 56 -300 36 -35 73 -46 73 -22 0 6 3 22 6 33 4 17 -2 26 -29 43
-71 44 -89 155 -39 246 36 66 86 95 165 95 l59 0 -7 -67 c-4 -38 -11 -81 -15
-98 -10 -33 -42 -226 -44 -265 -1 -25 0 -25 83 -28 62 -2 89 1 107 13 13 8 29
15 37 15 24 0 84 75 105 133 25 68 28 150 7 191 -8 15 -15 34 -15 40 0 20 -71
85 -119 109 -52 26 -162 39 -246 28z m241 -112 c26 -12 53 -36 66 -57 46 -74
20 -214 -47 -258 -30 -20 -108 -36 -131 -27 -13 5 -14 17 -9 72 4 36 13 91 20
121 7 30 16 81 20 113 7 65 15 69 81 36z"/>
<path d="M1997 4610 c-20 -27 -37 -52 -37 -55 0 -3 -16 -27 -35 -54 -19 -26
-35 -51 -35 -54 0 -9 -82 -117 -89 -117 -3 0 -41 20 -85 45 -43 25 -80 45 -82
45 -2 0 -26 14 -55 30 -28 17 -53 29 -56 26 -13 -12 12 -79 35 -94 31 -21 177
-101 252 -139 30 -15 66 -35 78 -45 l24 -17 -34 -15 c-18 -7 -67 -24 -108 -36
-41 -12 -93 -28 -115 -36 -23 -8 -47 -14 -55 -14 -8 0 -27 -6 -42 -14 -14 -8
-44 -17 -66 -21 -60 -10 -77 -25 -65 -61 12 -35 40 -42 85 -20 17 9 37 16 44
16 7 0 59 15 116 33 57 19 137 44 178 56 122 37 173 53 215 67 22 7 60 18 84
24 42 11 43 13 37 43 -10 49 -18 51 -92 28 -37 -11 -71 -21 -76 -21 -14 0
-138 74 -138 82 0 4 41 67 90 140 55 81 90 142 90 158 0 32 -10 70 -19 70 -4
0 -23 -22 -44 -50z"/>
<path d="M8880 4340 c-63 -4 -134 -8 -156 -9 -40 -1 -42 -3 -63 -50 -11 -27
-21 -52 -21 -54 0 -4 121 -110 348 -307 89 -77 115 -85 120 -34 3 26 -4 36
-45 70 -26 21 -50 41 -53 44 -3 3 -43 38 -90 78 -176 151 -191 165 -185 170 3
3 113 9 246 13 228 7 242 9 264 29 13 12 25 30 28 41 5 18 -1 19 -136 17 -78
-1 -194 -5 -257 -8z"/>
<path d="M2092 4012 c-39 -4 -49 -22 -32 -61 11 -27 13 -28 50 -19 58 15 130
-12 163 -60 59 -84 70 -147 38 -210 -25 -48 -54 -74 -121 -107 -30 -15 -63
-31 -72 -36 -32 -17 -108 -10 -150 13 -49 28 -108 122 -108 174 0 38 21 87 52
121 23 25 18 70 -8 80 -22 8 -69 -41 -94 -100 -29 -66 -23 -122 19 -209 57
-116 122 -158 242 -158 67 0 85 4 147 35 48 24 84 51 110 83 57 68 65 89 65
162 0 63 -12 101 -57 178 -48 83 -138 125 -244 114z"/>
<path d="M8510 3859 c-88 -53 -159 -175 -160 -271 0 -43 29 -116 58 -141 19
-18 20 -17 41 9 20 26 20 27 2 51 -43 53 -38 143 10 216 39 60 86 87 149 87
47 0 120 -25 120 -42 0 -9 -41 -86 -89 -166 -17 -29 -31 -55 -31 -57 0 -3 -20
-38 -45 -80 -24 -41 -42 -82 -39 -90 3 -7 37 -26 74 -41 79 -31 141 -29 207 5
103 52 161 182 140 309 -8 47 -16 61 -71 117 -84 86 -148 115 -253 115 -62 0
-85 -4 -113 -21z m351 -181 c20 -27 24 -44 24 -100 0 -58 -4 -72 -30 -110 -34
-47 -96 -88 -136 -88 -22 0 -95 24 -107 35 -2 2 25 54 61 117 35 62 66 118 68
123 2 6 15 27 27 47 22 35 25 37 46 23 12 -8 33 -29 47 -47z"/>
<path d="M2495 3519 c-21 -23 -181 -146 -257 -198 -28 -19 -64 -53 -79 -74
-52 -72 -33 -164 54 -263 58 -66 94 -84 169 -84 80 0 103 14 85 50 -12 23 -18
25 -69 22 -63 -4 -98 10 -139 55 -47 51 -71 101 -64 131 8 38 51 82 79 82 29
0 85 -41 156 -115 70 -72 95 -85 166 -85 71 0 115 26 144 86 25 52 25 68 -4
129 -45 96 -123 149 -212 143 l-54 -3 45 43 44 44 -21 29 c-12 16 -22 29 -23
29 -1 0 -10 -9 -20 -21z m97 -189 c57 -40 80 -75 80 -127 0 -38 -5 -50 -29
-69 -48 -39 -91 -32 -165 26 -35 28 -85 67 -112 87 l-48 37 33 27 c65 54 179
63 241 19z"/>
<path d="M8190 3385 c-22 -24 -23 -25 -5 -45 9 -10 47 -40 84 -65 36 -25 93
-66 126 -90 33 -25 85 -63 115 -85 119 -86 147 -107 209 -152 35 -27 69 -48
76 -48 19 0 48 38 42 54 -3 8 -26 29 -51 48 -26 18 -94 69 -154 113 -59 44
-154 114 -212 155 -58 41 -124 89 -148 107 -24 18 -47 33 -51 33 -4 0 -18 -11
-31 -25z"/>
<path d="M8004 3140 c-48 -21 -122 -90 -154 -144 -19 -32 -23 -52 -23 -120 0
-71 4 -89 26 -127 34 -57 100 -120 162 -155 88 -48 207 -33 296 38 41 34 88
111 99 163 45 215 -211 432 -406 345z m169 -75 c39 -18 111 -87 145 -138 37
-55 35 -134 -4 -190 -39 -55 -118 -107 -164 -107 -50 0 -128 49 -192 120 -92
101 -91 183 0 275 20 21 51 44 67 51 35 17 101 11 148 -11z"/>
<path d="M2842 3078 c-22 -22 -13 -42 45 -100 l58 -58 -153 -152 -152 -153
-58 58 c-59 58 -97 72 -109 41 -4 -11 15 -36 58 -80 l63 -64 -43 -44 c-42 -43
-43 -44 -22 -55 17 -10 29 -7 68 13 l47 26 42 -25 c75 -44 105 -23 48 35 l-34
34 150 152 150 153 0 49 c0 47 -2 51 -69 115 -38 37 -71 67 -73 67 -2 0 -9 -5
-16 -12z"/>
<path d="M7482 2947 c-12 -13 -22 -27 -22 -31 0 -5 21 -36 48 -70 26 -33 59
-79 74 -101 15 -22 35 -49 43 -61 15 -21 15 -21 -62 -16 -56 3 -88 0 -113 -11
-53 -22 -112 -79 -139 -132 -30 -61 -25 -145 13 -223 35 -71 140 -174 199
-197 142 -54 326 71 327 223 l1 37 33 -38 33 -37 27 21 c14 11 26 26 26 32 0
11 -42 71 -140 202 -17 22 -55 74 -85 115 -29 41 -72 100 -94 130 -22 30 -60
83 -85 118 -25 34 -50 62 -54 62 -5 0 -18 -10 -30 -23z m159 -336 c51 -23 72
-44 122 -121 80 -124 52 -231 -80 -305 -57 -31 -81 -31 -144 0 -36 19 -63 44
-98 92 -109 148 -92 256 54 331 51 27 91 27 146 3z"/>
<path d="M3120 2731 c-44 -24 -75 -65 -84 -112 -12 -67 2 -98 89 -189 45 -47
90 -100 99 -118 17 -33 17 -34 -9 -68 -42 -55 -63 -60 -123 -30 -28 14 -67 42
-86 62 -32 33 -35 42 -38 102 -3 68 -18 92 -52 79 -13 -5 -16 -21 -16 -75 0
-60 4 -75 30 -114 49 -74 155 -137 230 -138 105 0 178 105 141 203 -5 14 -50
68 -100 121 -99 106 -106 124 -71 181 32 52 92 54 168 8 65 -40 116 -138 93
-181 -17 -31 -13 -52 12 -73 12 -10 25 -18 28 -19 14 0 39 75 39 118 0 56 -22
96 -90 162 -89 86 -192 119 -260 81z"/>
<path d="M6923 2341 c-123 -46 -194 -124 -201 -222 -5 -63 3 -73 39 -56 17 9
26 23 30 52 10 77 51 124 134 159 81 34 175 7 223 -64 25 -37 25 -58 2 -71
-22 -12 -246 -118 -307 -145 -80 -36 -80 -62 5 -156 50 -56 99 -78 170 -78 99
0 201 56 247 135 22 36 25 54 25 131 0 78 -4 97 -29 149 -30 63 -96 137 -145
162 -47 24 -133 26 -193 4z m299 -296 c11 -65 -1 -111 -39 -150 -79 -81 -179
-99 -246 -44 -21 17 -44 44 -52 59 l-15 28 128 62 c70 33 138 68 152 75 42 25
64 15 72 -30z"/>
<path d="M3790 2253 c-24 -48 -99 -200 -167 -336 -67 -137 -123 -255 -123
-262 0 -16 30 -35 54 -35 20 0 363 687 350 700 -5 5 -23 12 -40 16 -30 6 -31
4 -74 -83z"/>
<path d="M4035 2208 c-10 -24 -27 -63 -37 -88 -11 -25 -23 -54 -28 -65 -5 -11
-21 -49 -35 -85 -14 -36 -30 -74 -35 -85 -5 -11 -19 -45 -31 -75 -12 -30 -30
-75 -41 -100 -11 -25 -24 -54 -28 -65 -5 -11 -18 -42 -29 -68 l-20 -48 35 -16
c41 -20 44 -18 77 67 27 68 82 201 97 235 5 11 28 65 50 120 23 55 47 114 54
130 7 17 24 56 37 88 l23 59 -24 19 c-36 27 -45 24 -65 -23z"/>
<path d="M4246 2125 c-9 -20 -18 -52 -21 -73 -4 -20 -10 -46 -15 -57 -5 -11
-17 -47 -25 -80 -9 -33 -23 -85 -32 -115 -31 -117 -42 -164 -38 -171 3 -4 18
-12 34 -17 28 -10 30 -9 44 26 8 20 18 53 22 72 22 108 71 224 116 275 57 65
123 80 204 45 37 -16 50 -28 66 -64 23 -52 22 -54 -61 -340 -27 -92 -26 -114
6 -126 14 -6 29 -10 33 -10 8 0 23 45 62 185 12 44 28 99 36 123 7 23 13 79
13 124 0 80 0 81 -38 118 -38 39 -116 70 -174 70 -43 0 -99 -27 -140 -67 l-36
-36 9 39 c16 69 12 101 -13 108 -35 9 -37 8 -52 -29z"/>
<path d="M6503 2150 c-13 -5 -23 -14 -23 -19 0 -5 16 -58 36 -118 32 -93 37
-122 38 -205 l1 -97 -44 -45 c-25 -26 -55 -46 -70 -48 -24 -3 -26 -7 -24 -42
2 -22 5 -41 7 -43 2 -3 24 4 49 15 54 24 91 71 108 135 13 55 18 53 39 -11 13
-41 19 -47 45 -50 53 -4 59 7 37 74 -11 32 -23 74 -27 91 -3 18 -11 35 -16 38
-5 4 -9 15 -9 25 0 10 -15 65 -33 122 -19 57 -39 122 -46 146 -12 44 -24 50
-68 32z"/>
<path d="M5300 1955 c-7 -9 -17 -62 -22 -118 -20 -233 -17 -226 -87 -207 -50
13 -344 30 -354 20 -5 -4 -7 -18 -5 -31 3 -22 9 -24 58 -26 96 -4 355 -36 361
-45 3 -4 2 -34 -3 -65 -4 -32 -11 -87 -16 -123 -5 -42 -12 -64 -19 -63 -24 5
-437 32 -440 30 -1 -2 -6 -17 -9 -34 l-6 -31 128 -6 c71 -4 158 -11 194 -16
36 -5 101 -12 146 -16 68 -6 82 -4 87 9 3 9 9 78 12 154 4 76 11 162 15 191 5
29 15 123 21 209 11 147 11 157 -7 170 -23 17 -39 17 -54 -2z"/>
<path d="M5796 1789 c-36 -28 -38 -105 -3 -137 34 -32 82 -29 118 7 44 44 35
107 -20 136 -40 20 -63 19 -95 -6z"/>
</g>
</svg>
